<?xml version="1.0" encoding="UTF-8" standalone="no"?>
<svg
   xmlns:dc="http://purl.org/dc/elements/1.1/"
   xmlns:cc="http://creativecommons.org/ns#"
   xmlns:rdf="http://www.w3.org/1999/02/22-rdf-syntax-ns#"
   xmlns:svg="http://www.w3.org/2000/svg"
   xmlns="http://www.w3.org/2000/svg"
   xmlns:sodipodi="http://sodipodi.sourceforge.net/DTD/sodipodi-0.dtd"
   xmlns:inkscape="http://www.inkscape.org/namespaces/inkscape"
   width="1.5in"
   height="0.466667in"
   viewBox="0 0 450 140"
   version="1.1"
   id="svg20"
   sodipodi:docname="site-logo.svg"
   inkscape:version="1.0.2 (e86c870879, 2021-01-15, custom)"
   inkscape:export-filename="C:\Users\makoto\Pictures\site-logo.png"
   inkscape:export-xdpi="500"
   inkscape:export-ydpi="500">
  <metadata
     id="metadata26">
    <rdf:RDF>
      <cc:Work
         rdf:about="">
        <dc:format>image/svg+xml</dc:format>
        <dc:type
           rdf:resource="http://purl.org/dc/dcmitype/StillImage" />
      </cc:Work>
    </rdf:RDF>
  </metadata>
  <defs
     id="defs24" />
  <sodipodi:namedview
     pagecolor="#ffffff"
     bordercolor="#666666"
     borderopacity="1"
     objecttolerance="10"
     gridtolerance="10"
     guidetolerance="10"
     inkscape:pageopacity="0"
     inkscape:pageshadow="2"
     inkscape:window-width="1920"
     inkscape:window-height="986"
     id="namedview22"
     showgrid="false"
     inkscape:snap-bbox="false"
     inkscape:snap-global="true"
     inkscape:zoom="8.4509081"
     inkscape:cx="72"
     inkscape:cy="22.400016"
     inkscape:window-x="-11"
     inkscape:window-y="-11"
     inkscape:window-maximized="1"
     inkscape:current-layer="svg20"
     inkscape:document-rotation="0" />
  <path
     id="パス #1"
     fill="none"
     stroke="black"
     stroke-width="1"
     d="M 50.22,109.38            C 50.22,109.38 50.22,110.86 50.22,110.86              50.22,110.86 46.62,110.86 46.62,110.86              46.62,110.86 46.62,126.00 46.62,126.00              46.62,126.00 45.05,126.00 45.05,126.00              45.05,126.00 45.05,110.86 45.05,110.86              45.05,110.86 41.42,110.86 41.42,110.86              41.42,110.86 41.42,109.38 41.42,109.38              41.42,109.38 50.22,109.38 50.22,109.38 Z            M 67.92,108.44            C 67.92,108.44 76.50,126.00 76.50,126.00              76.50,126.00 74.80,126.00 74.80,126.00              74.80,126.00 71.81,120.00 71.81,120.00              71.81,120.00 63.92,120.00 63.92,120.00              63.92,120.00 60.98,126.00 60.98,126.00              60.98,126.00 59.36,126.00 59.36,126.00              59.36,126.00 67.92,108.44 67.92,108.44 Z            M 67.86,111.89            C 67.86,111.89 64.64,118.52 64.64,118.52              64.64,118.52 71.12,118.52 71.12,118.52              71.12,118.52 67.86,111.89 67.86,111.89 Z            M 86.58,109.38            C 86.58,109.38 88.12,109.38 88.12,109.38              88.12,109.38 88.12,114.64 88.12,114.64              88.12,114.64 94.19,109.38 94.19,109.38              94.19,109.38 96.36,109.38 96.36,109.38              96.36,109.38 88.61,116.12 88.61,116.12              88.61,116.12 98.05,126.00 98.05,126.00              98.05,126.00 95.92,126.00 95.92,126.00              95.92,126.00 88.14,117.91 88.14,117.91              88.14,117.91 88.14,126.00 88.14,126.00              88.14,126.00 86.58,126.00 86.58,126.00              86.58,126.00 86.58,109.38 86.58,109.38 Z            M 114.92,108.44            C 114.92,108.44 123.50,126.00 123.50,126.00              123.50,126.00 121.80,126.00 121.80,126.00              121.80,126.00 118.81,120.00 118.81,120.00              118.81,120.00 110.92,120.00 110.92,120.00              110.92,120.00 107.98,126.00 107.98,126.00              107.98,126.00 106.36,126.00 106.36,126.00              106.36,126.00 114.92,108.44 114.92,108.44 Z            M 114.86,111.89            C 114.86,111.89 111.64,118.52 111.64,118.52              111.64,118.52 118.12,118.52 118.12,118.52              118.12,118.52 114.86,111.89 114.86,111.89 Z            M 145.17,109.38            C 145.17,109.38 146.66,109.38 146.66,109.38              146.66,109.38 146.66,127.03 146.66,127.03              146.66,127.03 135.06,112.77 135.06,112.77              135.06,112.77 135.06,126.00 135.06,126.00              135.06,126.00 133.58,126.00 133.58,126.00              133.58,126.00 133.58,108.34 133.58,108.34              133.58,108.34 145.17,122.58 145.17,122.58              145.17,122.58 145.17,109.38 145.17,109.38 Z            M 164.92,108.44            C 164.92,108.44 173.50,126.00 173.50,126.00              173.50,126.00 171.80,126.00 171.80,126.00              171.80,126.00 168.81,120.00 168.81,120.00              168.81,120.00 160.92,120.00 160.92,120.00              160.92,120.00 157.98,126.00 157.98,126.00              157.98,126.00 156.36,126.00 156.36,126.00              156.36,126.00 164.92,108.44 164.92,108.44 Z            M 164.86,111.89            C 164.86,111.89 161.64,118.52 161.64,118.52              161.64,118.52 168.12,118.52 168.12,118.52              168.12,118.52 164.86,111.89 164.86,111.89 Z            M 190.80,113.72            C 189.96,112.22 189.30,111.32 188.81,111.03              188.33,110.74 187.80,110.59 187.20,110.59              186.61,110.59 186.11,110.77 185.72,111.11              185.33,111.45 185.14,111.93 185.14,112.55              185.14,112.55 185.14,112.64 185.14,112.64              185.14,113.38 185.57,114.07 186.44,114.70              186.84,115.01 187.30,115.31 187.83,115.61              188.35,115.90 188.88,116.23 189.41,116.58              189.95,116.93 190.45,117.32 190.91,117.73              191.36,118.14 191.74,118.66 192.05,119.28              192.35,119.90 192.50,120.57 192.50,121.30              192.50,121.30 192.50,121.52 192.50,121.52              192.50,122.98 192.00,124.14 191.00,125.00              190.00,125.87 188.78,126.30 187.34,126.30              185.44,126.30 183.94,125.47 182.84,123.81              182.84,123.81 182.84,120.56 182.84,120.56              183.73,122.50 184.49,123.70 185.12,124.14              185.76,124.59 186.55,124.81 187.50,124.81              188.46,124.81 189.27,124.52 189.95,123.92              190.63,123.33 190.97,122.54 190.97,121.55              190.97,121.55 190.97,121.42 190.97,121.42              190.97,120.81 190.80,120.24 190.47,119.72              190.14,119.20 189.72,118.76 189.20,118.41              188.69,118.05 188.11,117.68 187.47,117.28              186.83,116.88 186.23,116.49 185.66,116.12              185.08,115.76 184.59,115.28 184.19,114.69              183.78,114.09 183.58,113.43 183.58,112.70              183.58,112.70 183.58,112.56 183.58,112.56              183.58,111.45 183.94,110.59 184.66,110.00              185.38,109.41 186.26,109.11 187.28,109.11              188.71,109.11 189.88,109.68 190.80,110.81              190.80,110.81 190.80,113.72 190.80,113.72 Z            M 214.06,109.38            C 214.06,109.38 215.62,109.38 215.62,109.38              215.62,109.38 215.62,126.00 215.62,126.00              215.62,126.00 214.06,126.00 214.06,126.00              214.06,126.00 214.06,120.00 214.06,120.00              214.06,120.00 204.14,120.00 204.14,120.00              204.14,120.00 204.14,126.00 204.14,126.00              204.14,126.00 202.58,126.00 202.58,126.00              202.58,126.00 202.58,109.38 202.58,109.38              202.58,109.38 204.14,109.38 204.14,109.38              204.14,109.38 204.14,118.52 204.14,118.52              204.14,118.52 214.06,118.52 214.06,118.52              214.06,118.52 214.06,109.38 214.06,109.38 Z            M 226.69,109.38            C 226.69,109.38 228.25,109.38 228.25,109.38              228.25,109.38 228.25,126.00 228.25,126.00              228.25,126.00 226.69,126.00 226.69,126.00              226.69,126.00 226.69,109.38 226.69,109.38 Z            M 254.25,117.88            C 254.25,117.88 246.84,117.88 246.84,117.88              246.84,117.88 246.84,116.34 246.84,116.34              246.84,116.34 254.25,116.34 254.25,116.34              254.25,116.34 254.25,117.88 254.25,117.88 Z            M 272.69,109.38            C 272.69,109.38 274.25,109.38 274.25,109.38              274.25,109.38 274.25,126.00 274.25,126.00              274.25,126.00 272.69,126.00 272.69,126.00              272.69,126.00 272.69,109.38 272.69,109.38 Z            M 297.17,109.38            C 297.17,109.38 298.66,109.38 298.66,109.38              298.66,109.38 298.66,127.03 298.66,127.03              298.66,127.03 287.06,112.77 287.06,112.77              287.06,112.77 287.06,126.00 287.06,126.00              287.06,126.00 285.58,126.00 285.58,126.00              285.58,126.00 285.58,108.34 285.58,108.34              285.58,108.34 297.17,122.58 297.17,122.58              297.17,122.58 297.17,109.38 297.17,109.38 Z            M 317.22,109.38            C 317.22,109.38 317.22,110.86 317.22,110.86              317.22,110.86 313.62,110.86 313.62,110.86              313.62,110.86 313.62,126.00 313.62,126.00              313.62,126.00 312.05,126.00 312.05,126.00              312.05,126.00 312.05,110.86 312.05,110.86              312.05,110.86 308.42,110.86 308.42,110.86              308.42,110.86 308.42,109.38 308.42,109.38              308.42,109.38 317.22,109.38 317.22,109.38 Z            M 327.58,109.38            C 327.58,109.38 334.09,109.38 334.09,109.38              334.09,109.38 334.09,110.86 334.09,110.86              334.09,110.86 329.14,110.86 329.14,110.86              329.14,110.86 329.14,118.55 329.14,118.55              329.14,118.55 333.28,118.55 333.28,118.55              333.28,118.55 333.28,120.03 333.28,120.03              333.28,120.03 329.14,120.03 329.14,120.03              329.14,120.03 329.14,124.52 329.14,124.52              329.14,124.52 334.09,124.52 334.09,124.52              334.09,124.52 334.09,126.00 334.09,126.00              334.09,126.00 327.58,126.00 327.58,126.00              327.58,126.00 327.58,109.38 327.58,109.38 Z            M 344.58,109.38            C 344.58,109.38 345.92,109.38 345.92,109.38              347.39,109.38 348.68,109.92 349.80,111.00              350.92,112.09 351.48,113.37 351.48,114.84              351.48,116.32 350.91,117.60 349.77,118.67              348.63,119.75 347.40,120.28 346.08,120.28              346.08,120.28 346.08,119.91 346.08,119.91              346.08,119.91 352.38,126.00 352.38,126.00              352.38,126.00 350.27,126.00 350.27,126.00              350.27,126.00 346.12,121.66 346.12,121.66              346.12,121.66 346.12,126.00 346.12,126.00              346.12,126.00 344.58,126.00 344.58,126.00              344.58,126.00 344.58,109.38 344.58,109.38 Z            M 346.06,118.86            C 346.06,118.86 346.06,118.80 346.06,118.80              347.07,118.80 347.97,118.41 348.75,117.62              349.54,116.84 349.94,115.92 349.94,114.86              349.94,113.79 349.53,112.86 348.72,112.06              347.91,111.26 346.98,110.86 345.95,110.86              345.95,110.86 345.95,110.69 345.95,110.69              345.95,110.69 346.06,118.86 346.06,118.86 Z            M 362.69,109.38            C 362.69,109.38 364.25,109.38 364.25,109.38              364.25,109.38 364.25,126.00 364.25,126.00              364.25,126.00 362.69,126.00 362.69,126.00              362.69,126.00 362.69,109.38 362.69,109.38 Z            M 383.41,126.27            C 381.11,126.27 379.13,125.41 377.45,123.69              375.77,121.96 374.94,119.94 374.94,117.62              374.94,115.31 375.79,113.32 377.48,111.64              379.18,109.95 381.22,109.11 383.59,109.11              385.97,109.11 387.99,109.95 389.67,111.62              391.36,113.30 392.20,115.30 392.20,117.62              392.20,119.95 391.37,121.97 389.70,123.69              388.04,125.41 386.04,126.27 383.72,126.27              383.72,126.27 383.41,126.27 383.41,126.27 Z            M 390.62,117.69            C 390.62,115.74 389.94,114.07 388.56,112.69              387.19,111.29 385.52,110.59 383.58,110.59              381.64,110.59 379.98,111.29 378.59,112.69              377.21,114.07 376.52,115.74 376.52,117.69              376.52,119.62 377.21,121.29 378.59,122.69              379.98,124.09 381.63,124.78 383.56,124.78              385.50,124.78 387.16,124.09 388.55,122.69              389.93,121.29 390.62,119.62 390.62,117.69 Z            M 402.58,109.38            C 402.58,109.38 403.92,109.38 403.92,109.38              405.39,109.38 406.68,109.92 407.80,111.00              408.92,112.09 409.48,113.37 409.48,114.84              409.48,116.32 408.91,117.60 407.77,118.67              406.63,119.75 405.40,120.28 404.08,120.28              404.08,120.28 404.08,119.91 404.08,119.91              404.08,119.91 410.38,126.00 410.38,126.00              410.38,126.00 408.27,126.00 408.27,126.00              408.27,126.00 404.12,121.66 404.12,121.66              404.12,121.66 404.12,126.00 404.12,126.00              404.12,126.00 402.58,126.00 402.58,126.00              402.58,126.00 402.58,109.38 402.58,109.38 Z            M 404.06,118.86            C 404.06,118.86 404.06,118.80 404.06,118.80              405.07,118.80 405.97,118.41 406.75,117.62              407.54,116.84 407.94,115.92 407.94,114.86              407.94,113.79 407.53,112.86 406.72,112.06              405.91,111.26 404.98,110.86 403.95,110.86              403.95,110.86 403.95,110.69 403.95,110.69              403.95,110.69 404.06,118.86 404.06,118.86 Z            M 41.97,71.23            C 41.97,71.23 54.16,72.75 54.16,72.75              54.16,72.75 52.22,15.00 52.22,15.00              52.22,15.00 59.86,15.00 59.86,15.00              59.86,15.00 62.30,82.50 62.30,82.50              62.30,82.50 41.05,76.88 41.05,76.88              41.05,76.88 41.97,71.23 41.97,71.23 Z            M 67.52,37.38            C 67.52,37.38 72.89,33.02 72.89,33.02              72.89,33.02 93.30,57.55 93.30,57.55              93.30,57.55 87.58,62.58 87.58,62.58              87.58,62.58 67.52,37.38 67.52,37.38 Z            M 39.62,34.86            C 39.62,34.86 45.58,39.31 45.58,39.31              45.58,39.31 25.77,65.94 25.77,65.94              25.77,65.94 19.80,61.33 19.80,61.33              19.80,61.33 39.62,34.86 39.62,34.86 Z            M 127.98,37.52            C 127.98,37.52 151.09,37.52 151.09,37.52              151.09,37.52 151.92,33.33 151.92,33.33              151.92,33.33 128.23,33.33 128.23,33.33              128.23,33.33 127.81,28.00 127.81,28.00              127.81,28.00 152.86,28.00 152.86,28.00              152.86,28.00 153.69,22.12 153.69,22.12              153.69,22.12 126.98,25.56 126.98,25.56              126.98,25.56 125.72,19.77 125.72,19.77              125.72,19.77 132.27,18.92 132.27,18.92              132.27,18.92 136.72,9.77 136.72,9.77              136.72,9.77 143.28,12.05 143.28,12.05              143.28,12.05 140.00,17.92 140.00,17.92              140.00,17.92 162.27,15.14 162.27,15.14              162.27,15.14 156.89,43.00 156.89,43.00              156.89,43.00 127.41,43.00 127.41,43.00              127.41,43.00 127.98,37.52 127.98,37.52 Z            M 149.66,74.75            C 149.66,74.75 161.59,76.61 161.59,76.61              161.59,76.61 165.53,60.31 165.53,60.31              165.53,60.31 118.66,64.34 118.66,64.34              118.66,64.34 115.05,18.09 115.05,18.09              115.05,18.09 122.36,17.50 122.36,17.50              122.36,17.50 125.55,57.95 125.55,57.95              125.55,57.95 174.78,53.75 174.78,53.75              174.78,53.75 167.12,84.50 167.12,84.50              167.12,84.50 148.73,79.72 148.73,79.72              148.73,79.72 149.66,74.75 149.66,74.75 Z            M 128.16,47.88            C 128.16,47.88 167.22,44.59 167.22,44.59              167.22,44.59 167.64,50.31 167.64,50.31              167.64,50.31 128.66,53.67 128.66,53.67              128.66,53.67 128.16,47.88 128.16,47.88 Z            M 147.64,65.19            C 147.64,65.19 152.59,62.75 152.59,62.75              152.59,62.75 157.72,70.64 157.72,70.64              157.72,70.64 152.44,73.58 152.44,73.58              152.44,73.58 147.64,65.19 147.64,65.19 Z            M 113.95,64.42            C 113.95,64.42 119.92,68.28 119.92,68.28              119.92,68.28 110.27,82.56 110.27,82.56              110.27,82.56 104.12,78.70 104.12,78.70              104.12,78.70 113.95,64.42 113.95,64.42 Z            M 136.39,67.11            C 136.39,67.11 142.36,65.69 142.36,65.69              142.36,65.69 145.45,76.86 145.45,76.86              145.45,76.86 139.16,78.62 139.16,78.62              139.16,78.62 136.39,67.11 136.39,67.11 Z            M 123.95,67.53            C 123.95,67.53 130.67,66.94 130.67,66.94              130.67,66.94 131.52,80.64 131.52,80.64              131.52,80.64 124.45,81.31 124.45,81.31              124.45,81.31 123.95,67.53 123.95,67.53 Z            M 240.62,24.91            C 240.62,24.91 236.02,34.98 236.02,34.98              236.02,34.98 230.22,32.38 230.22,32.38              230.22,32.38 231.56,29.36 231.56,29.36              231.56,29.36 207.95,31.70 207.95,31.70              207.95,31.70 207.03,25.75 207.03,25.75              207.03,25.75 216.69,24.81 216.69,24.81              216.69,24.81 214.77,14.91 214.77,14.91              214.77,14.91 221.06,13.56 221.06,13.56              221.06,13.56 222.83,24.14 222.83,24.14              222.83,24.14 231.22,23.31 231.22,23.31              231.22,23.31 231.98,28.34 231.98,28.34              231.98,28.34 238.95,12.89 238.95,12.89              238.95,12.89 244.92,15.16 244.92,15.16              244.92,15.16 241.47,22.89 241.47,22.89              241.47,22.89 257.52,21.12 257.52,21.12              257.52,21.12 258.19,27.00 258.19,27.00              258.19,27.00 241.47,29.02 241.47,29.02              241.47,29.02 240.62,24.91 240.62,24.91 Z            M 193.09,16.84            C 193.09,16.84 205.36,26.83 205.36,26.83              205.36,26.83 200.56,32.12 200.56,32.12              200.56,32.12 188.55,21.97 188.55,21.97              188.55,21.97 193.09,16.84 193.09,16.84 Z            M 218.45,60.69            C 218.45,60.69 224.08,61.70 224.08,61.70              224.08,61.70 224.25,43.39 224.25,43.39              224.25,43.39 220.81,44.22 220.81,44.22              220.81,44.22 218.70,39.77 218.70,39.77              218.70,39.77 215.09,67.41 215.09,67.41              215.09,67.41 208.97,66.06 208.97,66.06              208.97,66.06 213.58,31.38 213.58,31.38              213.58,31.38 219.62,32.72 219.62,32.72              219.62,32.72 218.88,38.94 218.88,38.94              218.88,38.94 229.97,36.66 229.97,36.66              229.97,36.66 230.47,69.42 230.47,69.42              230.47,69.42 217.78,65.14 217.78,65.14              217.78,65.14 218.45,60.69 218.45,60.69 Z            M 237.44,63.38            C 237.44,63.38 244.33,64.12 244.33,64.12              244.33,64.12 243.31,45.14 243.31,45.14              243.31,45.14 248.78,44.73 248.78,44.73              248.78,44.73 245.84,43.30 245.84,43.30              245.84,43.30 250.38,38.69 250.38,38.69              250.38,38.69 235.34,41.45 235.34,41.45              235.34,41.45 234.42,35.58 234.42,35.58              234.42,35.58 252.56,32.72 252.56,32.72              252.56,32.72 257.94,36.92 257.94,36.92              257.94,36.92 251.05,45.81 251.05,45.81              251.05,45.81 249.20,44.89 249.20,44.89              249.20,44.89 249.45,49.02 249.45,49.02              249.45,49.02 260.80,48.09 260.80,48.09              260.80,48.09 261.47,53.97 261.47,53.97              261.47,53.97 249.78,54.89 249.78,54.89              249.78,54.89 250.80,71.27 250.80,71.27              250.80,71.27 237.11,67.91 237.11,67.91              237.11,67.91 237.44,63.38 237.44,63.38 Z            M 201.41,56.06            C 201.41,56.06 193.42,58.25 193.42,58.25              193.42,58.25 189.73,54.47 189.73,54.47              189.73,54.47 197.88,42.88 197.88,42.88              197.88,42.88 187.72,44.73 187.72,44.73              187.72,44.73 186.53,38.69 186.53,38.69              186.53,38.69 200.56,36.58 200.56,36.58              200.56,36.58 206.28,41.78 206.28,41.78              206.28,41.78 198.38,51.95 198.38,51.95              198.38,51.95 203.50,50.36 203.50,50.36              203.50,50.36 208.97,55.06 208.97,55.06              208.97,55.06 194.34,79.34 194.34,79.34              194.34,79.34 187.80,76.48 187.80,76.48              187.80,76.48 201.41,56.06 201.41,56.06 Z            M 232.48,50.44            C 232.48,50.44 241.05,49.69 241.05,49.69              241.05,49.69 241.39,55.64 241.39,55.64              241.39,55.64 233.16,56.31 233.16,56.31              233.16,56.31 232.48,50.44 232.48,50.44 Z            M 202.58,68.33            C 202.58,68.33 261.12,77.91 261.12,77.91              261.12,77.91 259.78,84.38 259.78,84.38              259.78,84.38 201.23,74.22 201.23,74.22              201.23,74.22 202.58,68.33 202.58,68.33 Z            M 331.86,25.64            C 331.86,25.64 286.50,28.92 286.50,28.92              286.50,28.92 285.98,22.00 285.98,22.00              285.98,22.00 304.47,22.00 304.47,22.00              304.47,22.00 301.28,13.20 301.28,13.20              301.28,13.20 307.75,10.86 307.75,10.86              307.75,10.86 311.70,20.86 311.70,20.86              311.70,20.86 343.88,18.59 343.88,18.59              343.88,18.59 333.03,36.91 333.03,36.91              333.03,36.91 327.41,33.70 327.41,33.70              327.41,33.70 331.86,25.64 331.86,25.64 Z            M 278.09,18.17            C 278.09,18.17 284.91,18.92 284.91,18.92              284.91,18.92 281.55,39.59 281.55,39.59              281.55,39.59 274.73,38.66 274.73,38.66              274.73,38.66 278.09,18.17 278.09,18.17 Z            M 310.69,43.88            C 310.69,43.88 282.30,55.72 282.30,55.72              282.30,55.72 278.52,50.17 278.52,50.17              278.52,50.17 304.64,39.75 304.64,39.75              304.64,39.75 286.08,41.09 286.08,41.09              286.08,41.09 285.66,34.72 285.66,34.72              285.66,34.72 326.81,31.86 326.81,31.86              326.81,31.86 327.23,38.08 327.23,38.08              327.23,38.08 307.25,39.59 307.25,39.59              307.25,39.59 310.69,43.88 310.69,43.88 Z            M 315.64,52.02            C 315.64,52.02 333.45,40.77 333.45,40.77              333.45,40.77 337.73,46.14 337.73,46.14              337.73,46.14 319.92,57.06 319.92,57.06              319.92,57.06 315.64,52.02 315.64,52.02 Z            M 297.08,74.61            C 297.08,74.61 308.84,75.88 308.84,75.88              308.84,75.88 307.50,53.86 307.50,53.86              307.50,53.86 302.95,49.83 302.95,49.83              302.95,49.83 308.75,47.14 308.75,47.14              308.75,47.14 314.22,51.42 314.22,51.42              314.22,51.42 316.56,84.36 316.56,84.36              316.56,84.36 296.08,79.91 296.08,79.91              296.08,79.91 297.08,74.61 297.08,74.61 Z            M 275.83,62.84            C 275.83,62.84 301.28,51.34 301.28,51.34              301.28,51.34 304.89,56.47 304.89,56.47              304.89,56.47 279.69,68.14 279.69,68.14              279.69,68.14 275.83,62.84 275.83,62.84 Z            M 319.84,58.66            C 319.84,58.66 344.55,73.78 344.55,73.78              344.55,73.78 340.25,79.73 340.25,79.73              340.25,79.73 315.98,63.95 315.98,63.95              315.98,63.95 319.84,58.66 319.84,58.66 Z            M 273.39,76.20            C 273.39,76.20 303.47,60.75 303.47,60.75              303.47,60.75 307.16,66.05 307.16,66.05              307.16,66.05 277.67,81.92 277.67,81.92              277.67,81.92 273.39,76.20 273.39,76.20 Z            M 381.84,47.48            C 381.84,47.48 405.78,47.48 405.78,47.48              405.78,47.48 406.36,42.00 406.36,42.00              406.36,42.00 381.42,42.00 381.42,42.00              381.42,42.00 380.91,36.42 380.91,36.42              380.91,36.42 406.95,36.42 406.95,36.42              406.95,36.42 407.38,32.00 407.38,32.00              407.38,32.00 380.75,32.00 380.75,32.00              380.75,32.00 380.33,26.47 380.33,26.47              380.33,26.47 407.88,26.47 407.88,26.47              407.88,26.47 408.47,19.92 408.47,19.92              408.47,19.92 379.48,23.06 379.48,23.06              379.48,23.06 378.73,16.86 378.73,16.86              378.73,16.86 416.53,12.66 416.53,12.66              416.53,12.66 412.08,54.41 412.08,54.41              412.08,54.41 381.42,52.56 381.42,52.56              381.42,52.56 381.84,47.48 381.84,47.48 Z            M 368.23,14.50            C 368.23,14.50 375.53,14.50 375.53,14.50              375.53,14.50 379.06,54.98 379.06,54.98              379.06,54.98 372.09,55.83 372.09,55.83              372.09,55.83 368.23,14.50 368.23,14.50 Z            M 356.80,59.70            C 356.80,59.70 428.38,56.67 428.38,56.67              428.38,56.67 428.88,63.22 428.88,63.22              428.88,63.22 357.06,66.08 357.06,66.08              357.06,66.08 356.80,59.70 356.80,59.70 Z            M 402.25,66.75            C 402.25,66.75 423.17,76.75 423.17,76.75              423.17,76.75 419.47,83.05 419.47,83.05              419.47,83.05 398.64,72.12 398.64,72.12              398.64,72.12 402.25,66.75 402.25,66.75 Z            M 362.02,77.59            C 362.02,77.59 383.77,67.09 383.77,67.09              383.77,67.09 387.62,72.47 387.62,72.47              387.62,72.47 366.30,83.22 366.30,83.22              366.30,83.22 362.02,77.59 362.02,77.59 Z            M 18.00,94.00            C 18.00,94.00 431.00,94.00 431.00,94.00              431.00,94.00 431.00,96.00 431.00,96.00              431.00,96.00 18.00,96.00 18.00,96.00              18.00,96.00 18.00,94.00 18.00,94.00 Z"
     style="stroke:#4b2e00;stroke-opacity:1;fill:#4b2e00;fill-opacity:1;stroke-linejoin:miter" />
</svg>
